<?xml version="1.0" encoding="iso-8859-1"?>
<!-- Uploaded to: SVG Repo, www.svgrepo.com, Generator: SVG Repo Mixer Tools -->
<svg height="800px" width="800px" version="1.1" id="Layer_1" xmlns="http://www.w3.org/2000/svg" xmlns:xlink="http://www.w3.org/1999/xlink" 
	 viewBox="0 0 512.001 512.001" xml:space="preserve">
<g>
	<path style="fill:#2D527C;" d="M325.711,512.001H110.539c-28.486,0-51.66-23.174-51.66-51.66V225.285
		c0-17.428,8.742-33.474,23.388-42.922l132.997-85.806c24.747-15.967,56.728-15.967,81.473,0l132.997,85.806
		c14.645,9.448,23.388,25.493,23.388,42.922v256.394c0,8.158-6.615,14.772-14.772,14.772c-8.157,0-14.772-6.613-14.772-14.772
		V225.285c0-7.347-3.686-14.113-9.862-18.097l-132.997-85.806c-15.02-9.689-34.425-9.689-49.441,0L98.283,207.189
		c-6.175,3.984-9.86,10.749-9.86,18.097v235.056c0,12.196,9.921,22.116,22.116,22.116h215.173c8.157,0,14.772,6.613,14.772,14.772
		S333.87,512.001,325.711,512.001z"/>
	<path style="fill:#2D527C;" d="M486.918,172.985c-2.844,0-5.715-0.818-8.25-2.529L281.504,37.412
		c-15.491-10.455-35.514-10.455-51.01,0L33.332,170.456c-6.764,4.566-15.943,2.78-20.508-3.981
		c-4.563-6.762-2.78-15.945,3.982-20.508L213.969,12.922c25.533-17.23,58.53-17.228,84.061,0l197.164,133.044
		c6.762,4.563,8.545,13.745,3.981,20.508C496.321,170.703,491.662,172.985,486.918,172.985z"/>
</g>
<path style="fill:#CEE8FA;" d="M355.553,295.572c17.355-22.28,1.873-63.362,1.873-63.362s-42.946-4.867-60.562,16.835
	c-12.565-4.652-26.372-7.225-40.863-7.225c-14.492,0-28.3,2.573-40.863,7.225c-17.617-21.703-60.562-16.835-60.562-16.835
	s-15.482,41.082,1.873,63.362c0.78,1,1.628,1.928,2.507,2.821c-5.288,11.023-8.215,27.741-8.215,40.452
	c0,51.042,47.126,75.532,105.26,75.532s105.26-24.49,105.26-75.532c0-12.713-2.926-29.43-8.215-40.452
	C353.925,297.5,354.773,296.574,355.553,295.572z"/>
<g>
	<path style="fill:#2D527C;" d="M256.001,429.151c-72.916,0-120.032-35.446-120.032-90.304c0-10.002,1.671-24.85,6.124-38.043
		c-17.726-28.066-3.139-69.027-1.34-73.801c1.954-5.188,6.65-8.844,12.159-9.469c0.507-0.058,5.144-0.56,11.99-0.56
		c16.758,0,38.566,2.851,54.112,15.256c11.9-3.44,24.302-5.179,36.987-5.179c12.684,0,25.085,1.74,36.987,5.179
		c15.544-12.404,37.353-15.256,54.112-15.256c6.845,0,11.484,0.504,11.99,0.56c5.508,0.625,10.204,4.281,12.159,9.469
		c1.801,4.774,16.382,45.733-1.34,73.802c4.454,13.196,6.124,28.043,6.124,38.043C376.032,393.705,328.917,429.151,256.001,429.151z
		 M165.701,246.518c-2.913,12.035-5.129,30.312,2.4,39.977c0.332,0.427,0.784,0.929,1.384,1.539
		c4.367,4.437,5.48,11.136,2.789,16.75c-3.917,8.166-6.761,22.491-6.761,34.064c0,19.042,8.13,34.034,24.164,44.559
		c15.918,10.448,39.473,16.203,66.323,16.203s50.405-5.755,66.323-16.203c16.033-10.525,24.164-25.515,24.164-44.559
		c0-11.571-2.844-25.896-6.761-34.065c-2.69-5.61-1.576-12.306,2.784-16.744c0.61-0.619,1.053-1.112,1.394-1.551
		c7.522-9.655,5.309-27.92,2.392-39.968c-18.135,0.123-31.947,4.421-37.966,11.837c-3.988,4.913-10.668,6.739-16.596,4.544
		c-11.303-4.185-23.326-6.306-35.734-6.306c-12.408,0-24.432,2.123-35.736,6.306c-5.934,2.199-12.609,0.369-16.597-4.544
		C197.648,250.941,183.837,246.642,165.701,246.518z"/>
	<path style="fill:#2D527C;" d="M212.875,333.091h-2.028c-8.158,0-14.772-6.613-14.772-14.772c0-8.158,6.613-14.772,14.772-14.772
		h2.028c8.158,0,14.772,6.613,14.772,14.772C227.646,326.477,221.033,333.091,212.875,333.091z"/>
	<path style="fill:#2D527C;" d="M301.155,333.091h-2.03c-8.157,0-14.772-6.613-14.772-14.772c0-8.158,6.615-14.772,14.772-14.772
		h2.03c8.157,0,14.772,6.613,14.772,14.772C315.926,326.477,309.313,333.091,301.155,333.091z"/>
</g>
</svg>